<svg width="512" height="512" viewBox="0 0 512 512" fill="none" xmlns="http://www.w3.org/2000/svg">
<path d="M150.943 436.523L145.523 438.057C145.182 437.153 144.679 436.276 144.014 435.423C143.367 434.554 142.48 433.838 141.355 433.276C140.23 432.713 138.79 432.432 137.034 432.432C134.631 432.432 132.628 432.986 131.026 434.094C129.441 435.185 128.648 436.574 128.648 438.261C128.648 439.761 129.193 440.946 130.284 441.815C131.375 442.685 133.08 443.409 135.398 443.989L141.228 445.42C144.739 446.273 147.355 447.577 149.077 449.332C150.799 451.071 151.659 453.312 151.659 456.057C151.659 458.307 151.012 460.318 149.716 462.091C148.438 463.864 146.648 465.261 144.347 466.284C142.046 467.307 139.37 467.818 136.318 467.818C132.313 467.818 128.997 466.949 126.372 465.21C123.747 463.472 122.085 460.932 121.387 457.591L127.114 456.159C127.659 458.273 128.691 459.858 130.208 460.915C131.742 461.972 133.745 462.5 136.216 462.5C139.029 462.5 141.262 461.903 142.915 460.71C144.585 459.5 145.421 458.051 145.421 456.364C145.421 455 144.943 453.858 143.989 452.938C143.034 452 141.568 451.301 139.591 450.841L133.046 449.307C129.449 448.455 126.807 447.134 125.12 445.344C123.449 443.537 122.614 441.278 122.614 438.568C122.614 436.352 123.236 434.392 124.48 432.688C125.742 430.983 127.455 429.645 129.62 428.673C131.801 427.702 134.273 427.216 137.034 427.216C140.921 427.216 143.972 428.068 146.188 429.773C148.421 431.477 150.006 433.727 150.943 436.523ZM164.629 481.727C163.606 481.727 162.694 481.642 161.893 481.472C161.092 481.318 160.538 481.165 160.231 481.011L161.765 475.693C163.231 476.068 164.527 476.205 165.652 476.102C166.777 476 167.774 475.497 168.643 474.594C169.529 473.707 170.339 472.267 171.072 470.273L172.197 467.205L157.674 427.727H164.22L175.061 459.023H175.47L186.311 427.727H192.856L176.186 472.727C175.436 474.756 174.507 476.435 173.399 477.764C172.291 479.111 171.004 480.108 169.538 480.756C168.089 481.403 166.453 481.727 164.629 481.727ZM228.639 436.523L223.218 438.057C222.877 437.153 222.375 436.276 221.71 435.423C221.062 434.554 220.176 433.838 219.051 433.276C217.926 432.713 216.485 432.432 214.73 432.432C212.326 432.432 210.323 432.986 208.721 434.094C207.136 435.185 206.343 436.574 206.343 438.261C206.343 439.761 206.889 440.946 207.98 441.815C209.071 442.685 210.775 443.409 213.093 443.989L218.923 445.42C222.434 446.273 225.051 447.577 226.772 449.332C228.494 451.071 229.355 453.312 229.355 456.057C229.355 458.307 228.707 460.318 227.411 462.091C226.133 463.864 224.343 465.261 222.042 466.284C219.741 467.307 217.065 467.818 214.014 467.818C210.008 467.818 206.693 466.949 204.068 465.21C201.443 463.472 199.781 460.932 199.082 457.591L204.809 456.159C205.355 458.273 206.386 459.858 207.903 460.915C209.437 461.972 211.44 462.5 213.911 462.5C216.724 462.5 218.957 461.903 220.61 460.71C222.281 459.5 223.116 458.051 223.116 456.364C223.116 455 222.639 453.858 221.684 452.938C220.73 452 219.264 451.301 217.286 450.841L210.741 449.307C207.144 448.455 204.502 447.134 202.815 445.344C201.144 443.537 200.309 441.278 200.309 438.568C200.309 436.352 200.931 434.392 202.176 432.688C203.437 430.983 205.15 429.645 207.315 428.673C209.497 427.702 211.968 427.216 214.73 427.216C218.616 427.216 221.667 428.068 223.883 429.773C226.116 431.477 227.701 433.727 228.639 436.523ZM255.517 427.727V432.841H235.165V427.727H255.517ZM241.097 418.318H247.131V455.75C247.131 457.455 247.378 458.733 247.872 459.585C248.384 460.42 249.032 460.983 249.816 461.273C250.617 461.545 251.46 461.682 252.347 461.682C253.012 461.682 253.557 461.648 253.983 461.58C254.409 461.494 254.75 461.426 255.006 461.375L256.233 466.795C255.824 466.949 255.253 467.102 254.52 467.256C253.787 467.426 252.858 467.511 251.733 467.511C250.029 467.511 248.358 467.145 246.722 466.412C245.103 465.679 243.756 464.562 242.682 463.062C241.625 461.562 241.097 459.67 241.097 457.386V418.318ZM280.638 467.818C276.854 467.818 273.59 466.983 270.845 465.312C268.118 463.625 266.013 461.273 264.53 458.256C263.064 455.222 262.331 451.693 262.331 447.67C262.331 443.648 263.064 440.102 264.53 437.034C266.013 433.949 268.076 431.545 270.718 429.824C273.377 428.085 276.479 427.216 280.024 427.216C282.07 427.216 284.09 427.557 286.084 428.239C288.078 428.92 289.894 430.028 291.53 431.562C293.166 433.08 294.47 435.091 295.442 437.597C296.414 440.102 296.899 443.187 296.899 446.852V449.409H266.627V444.193H290.763C290.763 441.977 290.32 440 289.434 438.261C288.564 436.523 287.32 435.151 285.701 434.145C284.098 433.139 282.206 432.636 280.024 432.636C277.621 432.636 275.541 433.233 273.786 434.426C272.047 435.602 270.709 437.136 269.772 439.028C268.834 440.92 268.365 442.949 268.365 445.114V448.591C268.365 451.557 268.877 454.071 269.899 456.134C270.939 458.179 272.38 459.739 274.22 460.812C276.061 461.869 278.201 462.398 280.638 462.398C282.223 462.398 283.655 462.176 284.934 461.733C286.229 461.273 287.345 460.591 288.283 459.688C289.22 458.767 289.945 457.625 290.456 456.261L296.286 457.898C295.672 459.875 294.641 461.614 293.192 463.114C291.743 464.597 289.953 465.756 287.823 466.591C285.692 467.409 283.297 467.818 280.638 467.818ZM306.078 467V427.727H311.908V433.864H312.419C313.237 431.767 314.559 430.139 316.382 428.98C318.206 427.804 320.397 427.216 322.953 427.216C325.544 427.216 327.701 427.804 329.422 428.98C331.161 430.139 332.516 431.767 333.487 433.864H333.897C334.902 431.835 336.411 430.224 338.422 429.031C340.434 427.821 342.845 427.216 345.658 427.216C349.169 427.216 352.041 428.315 354.274 430.514C356.507 432.696 357.624 436.097 357.624 440.716V467H351.59V440.716C351.59 437.818 350.797 435.747 349.212 434.503C347.627 433.259 345.76 432.636 343.612 432.636C340.851 432.636 338.712 433.472 337.195 435.142C335.678 436.795 334.919 438.892 334.919 441.432V467H328.783V440.102C328.783 437.869 328.059 436.071 326.61 434.707C325.161 433.327 323.294 432.636 321.01 432.636C319.442 432.636 317.976 433.054 316.612 433.889C315.266 434.724 314.175 435.884 313.34 437.366C312.522 438.832 312.112 440.528 312.112 442.455V467H306.078ZM378.577 441.227C376.225 441.227 374.12 440.835 372.262 440.051C370.421 439.267 368.955 438.185 367.864 436.804C366.79 435.423 366.236 433.83 366.202 432.023H371.827C371.878 433.403 372.543 434.52 373.821 435.372C375.1 436.207 376.685 436.625 378.577 436.625C380.571 436.625 382.208 436.165 383.486 435.244C384.782 434.324 385.429 433.148 385.429 431.716C385.429 430.284 384.739 429.108 383.358 428.188C381.995 427.267 380.162 426.807 377.861 426.807H375.304V422.716H377.861C379.753 422.716 381.33 422.29 382.591 421.438C383.87 420.585 384.509 419.443 384.509 418.011C384.509 416.682 383.972 415.582 382.898 414.713C381.824 413.844 380.418 413.409 378.679 413.409C376.941 413.409 375.441 413.835 374.179 414.688C372.935 415.54 372.287 416.682 372.236 418.114H366.918C366.952 416.307 367.489 414.722 368.529 413.358C369.585 411.994 370.992 410.929 372.747 410.162C374.52 409.395 376.497 409.011 378.679 409.011C380.895 409.011 382.847 409.386 384.534 410.136C386.222 410.886 387.543 411.918 388.497 413.23C389.452 414.543 389.929 416.034 389.929 417.705C389.929 419.545 389.299 421.054 388.037 422.23C386.776 423.406 385.225 424.148 383.384 424.455V424.659C385.889 425.017 387.807 425.878 389.137 427.241C390.483 428.605 391.157 430.233 391.157 432.125C391.157 433.864 390.62 435.423 389.546 436.804C388.472 438.168 386.989 439.25 385.097 440.051C383.205 440.835 381.032 441.227 378.577 441.227Z" fill="black"/>
<path d="M256.1 36V211" stroke="black" stroke-width="6"/>
<path d="M256.1 211V386" stroke="black" stroke-width="3"/>
<path d="M256.1 211L419.2 116.834" stroke="black" stroke-width="6"/>
<path d="M256.1 211.366L93.0001 117.2" stroke="black" stroke-width="3"/>
<path d="M256.1 211L419.2 305.166" stroke="black" stroke-width="6"/>
<path d="M256.1 211.366L93.0001 305.532" stroke="black" stroke-width="3"/>
</svg>
